<svg width="512" height="512" viewBox="0 0 512 512" fill="none" xmlns="http://www.w3.org/2000/svg">
<circle cx="256" cy="256" r="248" fill="#FFD43E" stroke="black" stroke-width="16"/>
<path fill-rule="evenodd" clip-rule="evenodd" d="M103.715 293C99.2966 293 95.6826 296.593 96.0221 300.998C101.183 367.965 170.707 421 255.715 421C340.723 421 410.247 367.965 415.408 300.998C415.747 296.593 412.133 293 407.715 293V293C403.297 293 399.753 296.592 399.338 300.991C394.111 356.457 334.974 405 255.715 405C176.456 405 117.318 356.457 112.091 300.991C111.677 296.592 108.133 293 103.715 293V293Z" fill="black"/>
<circle cx="168.5" cy="160.5" r="37.5" fill="black"/>
<circle cx="343.5" cy="160.5" r="37.5" fill="black"/>
</svg>
