<svg width="512" height="512" viewBox="0 0 512 512" fill="none" xmlns="http://www.w3.org/2000/svg">
<circle cx="256" cy="256" r="248" fill="#FFD43E" stroke="black" stroke-width="16"/>
<circle cx="168.5" cy="160.5" r="37.5" fill="black"/>
<circle cx="343.5" cy="160.5" r="37.5" fill="black"/>
<path fill-rule="evenodd" clip-rule="evenodd" d="M141.927 270.825C137.508 270.825 133.885 274.422 134.328 278.818C139.412 329.3 192.233 369 256.645 369C321.058 369 373.879 329.3 378.963 278.818C379.406 274.422 375.782 270.825 371.364 270.825V270.825C366.946 270.825 363.415 274.423 362.839 278.803C357.691 317.955 315.15 353 256.645 353C198.141 353 155.6 317.955 150.451 278.803C149.875 274.423 146.345 270.825 141.927 270.825V270.825Z" fill="black"/>
</svg>
